<svg width="20" height="14" viewBox="0 0 20 14" fill="none" xmlns="http://www.w3.org/2000/svg">
<path fill-rule="evenodd" clip-rule="evenodd" d="M0 2.83334C0 1.4525 1.11917 0.333336 2.5 0.333336H17.5C18.8808 0.333336 20 1.4525 20 2.83334V11.1667C20 12.5475 18.8808 13.6667 17.5 13.6667H2.5C1.11917 13.6667 0 12.5475 0 11.1667V2.83334ZM2.5 2C2.04 2 1.66667 2.37334 1.66667 2.83334V11.1667C1.66667 11.6267 2.04 12 2.5 12H17.5C17.96 12 18.3333 11.6267 18.3333 11.1667V2.83334C18.3333 2.37334 17.96 2 17.5 2H2.5ZM10 5.33334C9.08 5.33334 8.33333 6.08 8.33333 7C8.33333 7.92 9.08 8.66667 10 8.66667C10.92 8.66667 11.6667 7.92 11.6667 7C11.6667 6.08 10.92 5.33334 10 5.33334ZM6.66667 7C6.66667 5.15917 8.15917 3.66667 10 3.66667C11.8408 3.66667 13.3333 5.15917 13.3333 7C13.3333 8.84084 11.8408 10.3333 10 10.3333C8.15917 10.3333 6.66667 8.84084 6.66667 7ZM4.16667 5.33334C4.62667 5.33334 5 5.70667 5 6.16667V7.83334C5 8.29334 4.62667 8.66667 4.16667 8.66667C3.70667 8.66667 3.33333 8.29334 3.33333 7.83334V6.16667C3.33333 5.70667 3.70667 5.33334 4.16667 5.33334ZM15.8333 5.33334C16.2933 5.33334 16.6667 5.70667 16.6667 6.16667V7.83334C16.6667 8.29334 16.2933 8.66667 15.8333 8.66667C15.3733 8.66667 15 8.29334 15 7.83334V6.16667C15 5.70667 15.3733 5.33334 15.8333 5.33334Z" fill="#8D94A0"/>
</svg>
