<svg width="24" height="24" viewBox="0 0 24 24" fill="none" xmlns="http://www.w3.org/2000/svg">
<path fill-rule="evenodd" clip-rule="evenodd" d="M8.72727 3.81818C8.72727 3.36655 8.36073 3 7.90909 3C7.45745 3 7.09091 3.36655 7.09091 3.81818V4.63636H5.45455C4.09882 4.63636 3 5.73518 3 7.09091V18.5455C3 19.9012 4.09882 21 5.45455 21H18.5455C19.9012 21 21 19.9012 21 18.5455V7.09091C21 5.73518 19.9012 4.63636 18.5455 4.63636H16.9091V3.81818C16.9091 3.36655 16.5425 3 16.0909 3C15.6393 3 15.2727 3.36655 15.2727 3.81818V4.63636H12.8182V3.81818C12.8182 3.36655 12.4516 3 12 3C11.5484 3 11.1818 3.36655 11.1818 3.81818V4.63636H8.72727V3.81818ZM5.45455 6.27273H7.09091C7.09091 6.72436 7.45745 7.09091 7.90909 7.09091C8.36073 7.09091 8.72727 6.72436 8.72727 6.27273H11.1818C11.1818 6.72436 11.5484 7.09091 12 7.09091C12.4516 7.09091 12.8182 6.72436 12.8182 6.27273H15.2727C15.2727 6.72436 15.6393 7.09091 16.0909 7.09091C16.5425 7.09091 16.9091 6.72436 16.9091 6.27273H18.5455C18.9971 6.27273 19.3636 6.63927 19.3636 7.09091V18.5455C19.3636 18.9971 18.9971 19.3636 18.5455 19.3636H5.45455C5.00291 19.3636 4.63636 18.9971 4.63636 18.5455V7.09091C4.63636 6.63927 5.00291 6.27273 5.45455 6.27273ZM7.90909 12C7.45745 12 7.09091 12.3665 7.09091 12.8182C7.09091 13.2698 7.45745 13.6364 7.90909 13.6364H12C12.4516 13.6364 12.8182 13.2698 12.8182 12.8182C12.8182 12.3665 12.4516 12 12 12H7.90909ZM7.09091 16.0909C7.09091 15.6393 7.45745 15.2727 7.90909 15.2727H16.0909C16.5425 15.2727 16.9091 15.6393 16.9091 16.0909C16.9091 16.5425 16.5425 16.9091 16.0909 16.9091H7.90909C7.45745 16.9091 7.09091 16.5425 7.09091 16.0909Z" fill="#99A096"/>
</svg>
