<svg width="20" height="20" viewBox="0 0 20 20" fill="none" xmlns="http://www.w3.org/2000/svg">
<path fill-rule="evenodd" clip-rule="evenodd" d="M1.83636 3.12455L1.81818 3.18182L1.83636 3.23909L1.97545 3.41909C2.14182 3.58182 2.42818 3.77091 2.85636 3.95C3.70818 4.30455 4.94727 4.54545 6.36364 4.54545C7.78 4.54545 9.01909 4.30455 9.87091 3.95C10.2991 3.77091 10.5855 3.58182 10.7518 3.41909L10.8909 3.23909L10.9091 3.18182L10.8909 3.12455L10.7518 2.94455C10.5855 2.78182 10.2991 2.59273 9.87091 2.41364C9.01909 2.05909 7.78 1.81818 6.36364 1.81818C4.94727 1.81818 3.70818 2.05909 2.85636 2.41364C2.42818 2.59273 2.14182 2.78182 1.97545 2.94455L1.83636 3.12455ZM10.9091 5.47546C10.7982 5.52909 10.6855 5.58 10.57 5.62818C9.44818 6.09637 7.96 6.36364 6.36364 6.36364C4.76727 6.36364 3.27909 6.09637 2.15727 5.62818C2.04182 5.58 1.92909 5.52909 1.81818 5.47546V6.81818L1.83636 6.87546L1.97545 7.05546C2.14182 7.21818 2.42818 7.40728 2.85636 7.58637C3.70818 7.94091 4.94727 8.18182 6.36364 8.18182C7.78 8.18182 9.01909 7.94091 9.87091 7.58637C10.2991 7.40728 10.5855 7.21818 10.7518 7.05546L10.8909 6.87546L10.9091 6.81818V5.47546ZM10.9091 9.11182C10.7982 9.16546 10.6855 9.21637 10.57 9.26455C9.44818 9.73273 7.96 10 6.36364 10C4.76727 10 3.27909 9.73273 2.15727 9.26455C2.04182 9.21637 1.92909 9.16546 1.81818 9.11182V10.4545L1.83636 10.5118L1.97545 10.6918C2.14182 10.8545 2.42818 11.0436 2.85636 11.2227C3.70818 11.5773 4.94727 11.8182 6.36364 11.8182C6.90364 11.8182 7.42182 11.7827 7.90455 11.7191C8.27455 11.33 8.76818 11.0273 9.28909 10.7955C9.76818 10.5836 10.3164 10.41 10.9091 10.2809V9.11182ZM12.7273 10.0291V3.18182C12.7273 2.55182 12.4164 2.03273 12.0273 1.64909C11.6418 1.26909 11.1291 0.968182 10.57 0.735455C9.44818 0.267273 7.96 0 6.36364 0C4.76727 0 3.27909 0.267273 2.15727 0.735455C1.59727 0.968182 1.08545 1.26909 0.7 1.64909C0.310909 2.03273 0 2.55182 0 3.18182V14.0909C0 14.7209 0.310909 15.24 0.7 15.6236C1.08545 16.0036 1.59727 16.3045 2.15727 16.5373C3.27909 17.0055 4.76727 17.2727 6.36364 17.2727C6.68818 17.2727 7.00818 17.2618 7.32 17.24C7.42182 17.6827 7.67364 18.0564 7.97273 18.3509C8.35818 18.7309 8.87 19.0318 9.43 19.2645C10.5518 19.7327 12.04 20 13.6364 20C15.2327 20 16.7209 19.7327 17.8427 19.2645C18.4018 19.0318 18.9145 18.7309 19.3 18.3509C19.6891 17.9673 20 17.4482 20 16.8182V13.1818C20 12.5518 19.6891 12.0327 19.3 11.6491C18.9145 11.2691 18.4018 10.9682 17.8427 10.7355C16.7209 10.2673 15.2327 10 13.6364 10C13.3282 10 13.0245 10.01 12.7273 10.0291ZM18.1818 15.4755V16.8182L18.1636 16.8755L18.0245 17.0555C17.8582 17.2182 17.5718 17.4073 17.1436 17.5864C16.2918 17.9409 15.0527 18.1818 13.6364 18.1818C12.22 18.1818 10.9809 17.9409 10.1291 17.5864C9.70091 17.4073 9.41455 17.2182 9.24818 17.0555L9.10909 16.8755L9.09091 16.8182V15.4755C9.20182 15.5291 9.31455 15.58 9.43 15.6282C10.5518 16.0964 12.04 16.3636 13.6364 16.3636C15.2327 16.3636 16.7209 16.0964 17.8427 15.6282C17.9582 15.58 18.0709 15.5291 18.1818 15.4755ZM7.27273 13.6073V15.4209C6.97909 15.4427 6.67455 15.4545 6.36364 15.4545C4.94727 15.4545 3.70818 15.2136 2.85636 14.8591C2.42818 14.68 2.14182 14.4909 1.97545 14.3282L1.83636 14.1482L1.81818 14.0909V12.7482C1.92909 12.8018 2.04182 12.8527 2.15727 12.9009C3.27909 13.3691 4.76727 13.6364 6.36364 13.6364C6.67182 13.6364 6.97545 13.6264 7.27273 13.6073ZM9.09091 13.1818L9.10909 13.2391L9.24818 13.4191C9.41455 13.5818 9.70091 13.7709 10.1291 13.95C10.9809 14.3045 12.22 14.5455 13.6364 14.5455C15.0527 14.5455 16.2918 14.3045 17.1436 13.95C17.5718 13.7709 17.8582 13.5818 18.0245 13.4191L18.1636 13.2391L18.1818 13.1818L18.1636 13.1245L18.0245 12.9445C17.8582 12.7818 17.5718 12.5927 17.1436 12.4136C16.2918 12.0591 15.0527 11.8182 13.6364 11.8182C13.0418 11.8182 12.4736 11.8609 11.9509 11.9373C11.1818 12.0509 10.5264 12.2355 10.0273 12.4582C9.50909 12.6882 9.24273 12.92 9.13818 13.0745L9.09091 13.1818Z" fill="#8D94A0"/>
</svg>
