<svg width="24" height="24" viewBox="0 0 24 24" fill="none" xmlns="http://www.w3.org/2000/svg">
<path fill-rule="evenodd" clip-rule="evenodd" d="M11.25 4.5C10.836 4.5 10.5 4.836 10.5 5.25V6H13.5V5.25C13.5 4.836 13.164 4.5 12.75 4.5H11.25ZM15 6V5.25C15 4.00725 13.9928 3 12.75 3H11.25C10.0072 3 9 4.00725 9 5.25V6H5.25C4.836 6 4.5 6.336 4.5 6.75C4.5 7.164 4.836 7.5 5.25 7.5H5.32875L6.60675 18.9982C6.73275 20.1383 7.69575 21 8.8425 21H15.1575C16.3042 21 17.2673 20.1383 17.3932 18.9982L18.6713 7.5H18.75C19.164 7.5 19.5 7.164 19.5 6.75C19.5 6.336 19.164 6 18.75 6H15ZM17.1624 7.5H6.83789L8.09714 18.8325C8.13989 19.2127 8.46089 19.5 8.84264 19.5H15.1576C15.5394 19.5 15.8604 19.2127 15.9031 18.8325L17.1624 7.5ZM9.96957 12.5302C9.67632 12.237 9.67632 11.763 9.96957 11.4697C10.2628 11.1765 10.7368 11.1765 11.0301 11.4697L11.9998 12.4395L12.9696 11.4697C13.2628 11.1765 13.7368 11.1765 14.0301 11.4697C14.3233 11.763 14.3233 12.237 14.0301 12.5302L13.0603 13.5L14.0301 14.4697C14.3233 14.763 14.3233 15.237 14.0301 15.5302C13.7368 15.8235 13.2628 15.8235 12.9696 15.5302L11.9998 14.5605L11.0301 15.5302C10.7368 15.8235 10.2628 15.8235 9.96957 15.5302C9.67632 15.237 9.67632 14.763 9.96957 14.4697L10.9393 13.5L9.96957 12.5302Z" fill="#F04B41"/>
</svg>
