<svg width="16" height="16" viewBox="0 0 16 16" fill="none" xmlns="http://www.w3.org/2000/svg">
<path fill-rule="evenodd" clip-rule="evenodd" d="M1 0C0.447715 0 0 0.447716 0 1V5.4C0 5.95229 0.447716 6.4 1 6.4H5.4C5.95229 6.4 6.4 5.95228 6.4 5.4V1C6.4 0.447715 5.95228 0 5.4 0H1ZM3.2 9.59999C1.43269 9.59999 0 11.0327 0 12.8C0 14.5673 1.43269 16 3.2 16C4.96731 16 6.4 14.5673 6.4 12.8C6.4 11.0327 4.96731 9.59999 3.2 9.59999ZM9.59989 3.2C9.59989 1.43269 11.0326 0 12.7999 0C14.5672 0 15.9999 1.43269 15.9999 3.2C15.9999 4.96731 14.5672 6.4 12.7999 6.4C11.0326 6.4 9.59989 4.96731 9.59989 3.2ZM10.5999 9.59999C10.0476 9.59999 9.59989 10.0477 9.59989 10.6V15C9.59989 15.5523 10.0476 16 10.5999 16H14.9999C15.5522 16 15.9999 15.5523 15.9999 15V10.6C15.9999 10.0477 15.5522 9.59999 14.9999 9.59999H10.5999Z" fill="#8D94A0"/>
</svg>
