<svg width="18" height="20" viewBox="0 0 18 20" fill="none" xmlns="http://www.w3.org/2000/svg">
<path fill-rule="evenodd" clip-rule="evenodd" d="M2.51981 2.45546C1.80892 2.45546 1.42077 3.28539 1.87598 3.8303L7.57909 10.671C7.95549 11.1237 8.16172 11.6938 8.16172 12.2806V15.8686C8.16172 16.1285 8.28579 16.38 8.49705 16.5393L9.83836 17.5452V12.2806C9.83836 11.6938 10.0446 11.1237 10.421 10.671L16.1241 3.8303C16.5793 3.28539 16.1912 2.45546 15.4803 2.45546H2.51981ZM0.587465 4.90335C-0.777323 3.26862 0.387944 0.778809 2.5198 0.778809H15.4803C17.6121 0.778809 18.7774 3.26862 17.4126 4.90335L11.7095 11.7441C11.5837 11.895 11.515 12.0878 11.515 12.2806V17.5452C11.515 18.9285 9.93811 19.7165 8.83236 18.8866L7.49105 17.8806C6.85728 17.4027 6.48506 16.6566 6.48506 15.8686V12.2806C6.48506 12.0878 6.41632 11.895 6.29057 11.7441L0.587465 4.90335Z" fill="#8D94A0"/>
</svg>
