<svg width="24" height="24" viewBox="0 0 24 24" fill="none" xmlns="http://www.w3.org/2000/svg">
<path fill-rule="evenodd" clip-rule="evenodd" d="M7.90909 5.45455C7.90909 4.09636 9.00791 3 10.3636 3H18.5455C19.9012 3 21 4.09636 21 5.45455V17.7273C21 19.5355 19.5346 21 17.7273 21H6.27273C4.46536 21 3 19.5355 3 17.7273C3 16.3691 4.09882 15.2727 5.45455 15.2727H7.90909V5.45455ZM5.45455 16.9091C5.00291 16.9091 4.63636 17.2773 4.63636 17.7273C4.63636 18.6273 5.36945 19.3636 6.27273 19.3636H14.8923C14.6141 18.8809 14.4545 18.3245 14.4545 17.7273C14.4545 17.2773 14.088 16.9091 13.6364 16.9091H5.45455ZM9.54545 15.2727V5.45455C9.54545 5.00455 9.912 4.63636 10.3636 4.63636H18.5455C18.9971 4.63636 19.3636 5.00455 19.3636 5.45455V17.7273C19.3636 18.6273 18.6305 19.3636 17.7273 19.3636C16.824 19.3636 16.0909 18.6273 16.0909 17.7273C16.0909 16.3691 14.9921 15.2727 13.6364 15.2727H9.54545ZM11.1818 7.90909C11.1818 7.45909 11.5484 7.09091 12 7.09091H16.9091C17.3607 7.09091 17.7273 7.45909 17.7273 7.90909C17.7273 8.35909 17.3607 8.72727 16.9091 8.72727H12C11.5484 8.72727 11.1818 8.35909 11.1818 7.90909ZM11.1818 11.1818C11.1818 10.7318 11.5484 10.3636 12 10.3636H14.4545C14.9062 10.3636 15.2727 10.7318 15.2727 11.1818C15.2727 11.6318 14.9062 12 14.4545 12H12C11.5484 12 11.1818 11.6318 11.1818 11.1818Z" fill="#A4AFAC"/>
</svg>
