<svg width="24" height="24" viewBox="0 0 24 24" fill="none" xmlns="http://www.w3.org/2000/svg">
<path fill-rule="evenodd" clip-rule="evenodd" d="M4.53662 11.25H8.26187C8.32637 9.20025 8.65637 7.33275 9.17387 5.91C9.30662 5.5455 9.45437 5.20125 9.61862 4.88625C6.87137 5.805 4.83287 8.271 4.53662 11.25ZM12 3C7.02975 3 3 7.02975 3 12C3 16.9703 7.02975 21 12 21C16.9703 21 21 16.9703 21 12C21 7.02975 16.9703 3 12 3ZM12.0001 4.5C11.8868 4.5 11.6821 4.56075 11.4008 4.887C11.1226 5.211 10.8376 5.724 10.5833 6.42225C10.1356 7.65525 9.82732 9.342 9.76282 11.25H14.2373C14.1728 9.342 13.8646 7.65525 13.4168 6.42225C13.1626 5.724 12.8776 5.211 12.5993 4.887C12.3181 4.56075 12.1133 4.5 12.0001 4.5ZM15.7379 11.25C15.6726 9.20025 15.3434 7.33275 14.8259 5.91C14.6931 5.5455 14.5454 5.20125 14.3811 4.88625C17.1284 5.805 19.1669 8.271 19.4631 11.25H15.7379ZM14.2373 12.75H9.76282C9.82732 14.658 10.1356 16.3447 10.5833 17.5778C10.8376 18.276 11.1226 18.789 11.4008 19.113C11.6821 19.4393 11.8868 19.5 12.0001 19.5C12.1133 19.5 12.3181 19.4393 12.5993 19.113C12.8776 18.789 13.1626 18.276 13.4168 17.5778C13.8646 16.3447 14.1728 14.658 14.2373 12.75ZM14.3811 19.1138C14.5454 18.7987 14.6931 18.4545 14.8259 18.09C15.3434 16.6672 15.6726 14.7998 15.7379 12.75H19.4631C19.1669 15.729 17.1284 18.195 14.3811 19.1138ZM9.61862 19.1138C9.45437 18.7987 9.30662 18.4545 9.17387 18.09C8.65637 16.6672 8.32637 14.7998 8.26187 12.75H4.53662C4.83287 15.729 6.87137 18.195 9.61862 19.1138Z" fill="#A4AFAC"/>
</svg>
