<svg width="24" height="24" viewBox="0 0 24 24" fill="none" xmlns="http://www.w3.org/2000/svg">
<path fill-rule="evenodd" clip-rule="evenodd" d="M2 5.8C2 5.36 2.3235 5 2.72209 5H18.608C19.0066 5 19.3301 5.36 19.3301 5.8C19.3301 6.24 19.0066 6.6 18.608 6.6H2.72209C2.3235 6.6 2 6.24 2 5.8Z" fill="#1DBB75"/>
<path fill-rule="evenodd" clip-rule="evenodd" d="M12.7934 10.6777H2.48524C2.21739 10.6777 2 10.3177 2 9.8777C2 9.4377 2.21739 9.0777 2.48524 9.0777H12.7934C13.0613 9.0777 13.2786 9.4377 13.2786 9.8777C13.2786 10.3177 13.0613 10.6777 12.7934 10.6777Z" fill="#1DBB75"/>
<path fill-rule="evenodd" clip-rule="evenodd" d="M2 13.9553C2 13.5153 2.21739 13.1553 2.48524 13.1553H8.7934C9.06125 13.1553 9.27864 13.5153 9.27864 13.9553C9.27864 14.3953 9.06125 14.7553 8.7934 14.7553H2.48524C2.21739 14.7553 2 14.3953 2 13.9553Z" fill="#1DBB75"/>
<path fill-rule="evenodd" clip-rule="evenodd" d="M2 17.8C2 17.36 2.14933 17 2.33333 17H6.66667C6.85067 17 7 17.36 7 17.8C7 18.24 6.85067 18.6 6.66667 18.6H2.33333C2.14933 18.6 2 18.24 2 17.8Z" fill="#1DBB75"/>
<path fill-rule="evenodd" clip-rule="evenodd" d="M21.678 10.1426C22.0306 10.3815 22.1051 10.8371 21.8443 11.1602L15.7544 18.705C15.6082 18.8862 15.3785 18.9951 15.1326 18.9998C14.8867 19.0046 14.6523 18.9047 14.4978 18.7293L11.1761 14.9568C10.9007 14.6441 10.9542 14.1861 11.2955 13.9338C11.6369 13.6815 12.1368 13.7305 12.4122 14.0432L15.0886 17.0827L20.5673 10.295C20.8281 9.97194 21.3254 9.90371 21.678 10.1426Z" fill="#1DBB75"/>
</svg>
