<svg width="20" height="16" viewBox="0 0 20 16" fill="none" xmlns="http://www.w3.org/2000/svg">
<path fill-rule="evenodd" clip-rule="evenodd" d="M0 2.16667C0 1.24667 0.746667 0.5 1.66667 0.5H18.3333C19.2533 0.5 20 1.24667 20 2.16667V4.66667C20 5.58667 19.2533 6.33333 18.3333 6.33333V13C18.3333 14.3808 17.2142 15.5 15.8333 15.5H4.16667C2.78583 15.5 1.66667 14.3808 1.66667 13V6.33333C0.746667 6.33333 0 5.58667 0 4.66667V2.16667ZM3.33333 6.33333V13C3.33333 13.46 3.70667 13.8333 4.16667 13.8333H15.8333C16.2933 13.8333 16.6667 13.46 16.6667 13V6.33333H3.33333ZM1.66667 4.66667H18.3333V2.16667H1.66667V4.66667ZM7.5 8.83333C7.5 8.37333 7.87333 8 8.33333 8H11.6667C12.1267 8 12.5 8.37333 12.5 8.83333C12.5 9.29333 12.1267 9.66667 11.6667 9.66667H8.33333C7.87333 9.66667 7.5 9.29333 7.5 8.83333Z" fill="#8D94A0"/>
</svg>
