<svg width="22" height="18" viewBox="0 0 22 18" fill="none" xmlns="http://www.w3.org/2000/svg">
<path fill-rule="evenodd" clip-rule="evenodd" d="M10.7458 2.37261H3.5C2.87863 2.37261 2.375 2.87624 2.375 3.49761V3.52349C1.916 3.57824 1.49075 3.80136 1.18363 4.15386C0.827376 4.56299 0.666126 5.10599 0.740376 5.64299L2.19875 16.143C2.32775 17.07 3.12013 17.76 4.05613 17.76H17.9439C18.1509 17.76 18.3189 17.592 18.3189 17.385C18.3189 17.178 18.1509 17.01 17.9439 17.01H4.05613C3.49438 17.01 3.01888 16.596 2.94163 16.0399L1.48325 5.53987C1.43863 5.21774 1.53575 4.89186 1.74913 4.64624C1.96288 4.40099 2.27225 4.25999 2.59775 4.25999H19.4023C19.7278 4.25999 20.0371 4.40099 20.2509 4.64624C20.4643 4.89186 20.5614 5.21774 20.5168 5.53987L19.4229 13.4149C19.3944 13.6196 19.5376 13.8094 19.7428 13.8379C19.9479 13.8664 20.1373 13.7227 20.1658 13.518C20.528 10.9087 20.9863 7.61062 21.2596 5.64299C21.3339 5.10599 21.1726 4.56299 20.8164 4.15386C20.5093 3.80136 20.084 3.57824 19.625 3.52349V1.73999C19.625 1.11862 19.1214 0.61499 18.5 0.61499C16.9141 0.61499 14.0551 0.61499 12.6204 0.61499C12.0823 0.61499 11.585 0.903365 11.318 1.37062L10.7458 2.37261ZM16.6171 13.6354L19.7364 16.7546C19.9561 16.9744 20.3124 16.9744 20.5321 16.7546C20.7515 16.5352 20.7515 16.1786 20.5321 15.9592L17.3945 12.8216C17.8542 12.1774 18.125 11.3887 18.125 10.5375C18.125 8.36436 16.3606 6.59999 14.1875 6.59999C12.0144 6.59999 10.25 8.36436 10.25 10.5375C10.25 12.7106 12.0144 14.475 14.1875 14.475C15.104 14.475 15.9478 14.1611 16.6171 13.6354ZM9.31288 13.6447C9.31288 13.2307 8.97725 12.8947 8.56288 12.8947C7.73075 12.8947 6.39538 12.8947 5.56288 12.8947C5.14888 12.8947 4.81288 13.2307 4.81288 13.6447V14.3947C4.81288 14.8091 5.14888 15.1447 5.56288 15.1447H8.56288C8.97725 15.1447 9.31288 14.8091 9.31288 14.3947C9.31288 14.1536 9.31288 13.8862 9.31288 13.6447ZM16.235 12.4646C16.7094 11.9614 17 11.283 17 10.5375C17 8.98536 15.7396 7.72499 14.1875 7.72499C12.6354 7.72499 11.375 8.98536 11.375 10.5375C11.375 12.0896 12.6354 13.35 14.1875 13.35C14.987 13.35 15.7093 13.0155 16.2215 12.4792L16.235 12.4646Z" fill="#706F95"/>
</svg>
