<svg width="17" height="20" viewBox="0 0 17 20" fill="none" xmlns="http://www.w3.org/2000/svg">
<path fill-rule="evenodd" clip-rule="evenodd" d="M8.11314 0C8.57314 0 8.94647 0.373333 8.94647 0.833333V1.72583C11.774 2.13 13.9465 4.56167 13.9465 7.5V8.42C13.9465 9.78417 14.4248 11.1058 15.299 12.1542L15.6423 12.5667C16.999 14.1942 15.8406 16.6667 13.7215 16.6667H11.4465C11.4465 18.5075 9.95397 20 8.11314 20C6.2723 20 4.7798 18.5075 4.7798 16.6667H2.5048C0.385636 16.6667 -0.772697 14.1942 0.583969 12.5667L0.927303 12.1542C1.80147 11.1058 2.2798 9.78417 2.2798 8.42V7.5C2.2798 4.56167 4.45314 2.13 7.2798 1.72583V0.833333C7.2798 0.373333 7.65314 0 8.11314 0ZM6.44653 16.6667C6.44653 17.5867 7.1932 18.3333 8.1132 18.3333C9.0332 18.3333 9.77987 17.5867 9.77987 16.6667H6.44653ZM2.50481 15C1.79814 15 1.41231 14.1758 1.86481 13.6333L2.20814 13.2208C3.33148 11.8733 3.94648 10.1742 3.94648 8.42V7.5C3.94648 5.19917 5.81231 3.33333 8.11314 3.33333C10.4148 3.33333 12.2798 5.19917 12.2798 7.5V8.42C12.2798 10.1742 12.8948 11.8733 14.0181 13.2208L14.3615 13.6333C14.814 14.1758 14.4281 15 13.7215 15H2.50481Z" fill="#8D94A0"/>
</svg>
