<svg width="24" height="24" viewBox="0 0 24 24" fill="none" xmlns="http://www.w3.org/2000/svg">
<path fill-rule="evenodd" clip-rule="evenodd" d="M9.74132 16.5572C9.74189 17.0022 9.37717 17.367 8.93211 17.3664H7.79238C7.34731 17.3658 6.98716 17.0057 6.98659 16.5606C6.98602 16.1155 7.35073 15.7508 7.7958 15.7514L8.93553 15.7514C9.38059 15.752 9.74075 16.1121 9.74132 16.5572Z" fill="#A4AFAC"/>
<path fill-rule="evenodd" clip-rule="evenodd" d="M13.7272 5.63519C13.7266 4.30114 12.6438 3.21839 11.3092 3.21725L5.41623 3.21668C4.08218 3.21611 2.99943 4.29886 3 5.63291L3.00057 18.3643C3.00171 19.6989 4.08445 20.7817 5.41851 20.7822L11.3121 20.7834C12.6461 20.7839 13.7289 19.7012 13.7283 18.3671L13.7277 12H20C20.5523 12 21 11.5523 21 11V7C21 6.44772 20.5523 6 20 6H13.7272L13.7272 5.63519ZM12.118 6L12.118 5.63292C12.1174 5.18786 11.7573 4.8277 11.3122 4.82713L5.41867 4.82599C4.97361 4.82542 4.60889 5.19014 4.60946 5.6352L4.6106 18.3671C4.61117 18.8122 4.97133 19.1724 5.41639 19.1729L11.3094 19.1735C11.7544 19.1741 12.1192 18.8094 12.1186 18.3643L12.1183 12H10C9.44771 12 9 11.5523 9 11V7C9 6.44772 9.44772 6 10 6H12.118ZM12.1183 10.9546C12.8867 10.7759 13.4257 10.0775 13.4257 9C13.4257 7.92244 12.8866 7.22395 12.1181 7.04533C11.989 7.01533 11.8534 7 11.7129 7C10.7336 7 10 7.74145 10 9C10 10.2567 10.7336 11 11.7129 11C11.8535 11 11.9891 10.9847 12.1183 10.9546ZM12.1182 10.2838C11.996 10.3388 11.8598 10.3669 11.7129 10.3669C11.1067 10.3669 10.679 9.88593 10.679 9C10.679 8.11407 11.1067 7.63308 11.7129 7.63308C11.8597 7.63308 11.9959 7.66114 12.1181 7.7162C12.5017 7.88906 12.7468 8.32806 12.7468 9C12.7468 9.67187 12.5018 10.1108 12.1182 10.2838ZM14.8924 7.64449H13.7402V7.05323H16.7144V7.64449H15.5622V10.9468H14.8924V7.64449ZM17.2878 10.9468H17.9631V9.63118H18.6767C19.5377 9.63118 20 9.09126 20 8.34221C20 7.59886 19.5431 7.05323 18.6858 7.05323H17.2878V10.9468ZM17.9631 9.05133V7.64259H18.582C19.0881 7.64259 19.3119 7.92776 19.3119 8.34221C19.3119 8.75665 19.0881 9.05133 18.5857 9.05133H17.9631Z" fill="#A4AFAC"/>
</svg>
