<svg width="24" height="24" viewBox="0 0 24 24" fill="none" xmlns="http://www.w3.org/2000/svg">
<path fill-rule="evenodd" clip-rule="evenodd" d="M12.1162 4.5C10.4595 4.5 9.11621 5.84325 9.11621 7.5V10.5H15.1162V7.5C15.1162 5.84325 13.773 4.5 12.1162 4.5ZM16.6162 10.5V7.5C16.6162 5.01525 14.601 3 12.1162 3C9.63146 3 7.61621 5.01525 7.61621 7.5V10.5C6.37346 10.5 5.36621 11.5072 5.36621 12.75V18.75C5.36621 19.9928 6.37346 21 7.61621 21H16.6162C17.859 21 18.8662 19.9928 18.8662 18.75V12.75C18.8662 11.5072 17.859 10.5 16.6162 10.5ZM7.61621 12C7.20221 12 6.86621 12.336 6.86621 12.75V18.75C6.86621 19.164 7.20221 19.5 7.61621 19.5H16.6162C17.0302 19.5 17.3662 19.164 17.3662 18.75V12.75C17.3662 12.336 17.0302 12 16.6162 12H7.61621ZM12.1162 14.25C12.5302 14.25 12.8662 14.586 12.8662 15V16.5C12.8662 16.914 12.5302 17.25 12.1162 17.25C11.7022 17.25 11.3662 16.914 11.3662 16.5V15C11.3662 14.586 11.7022 14.25 12.1162 14.25Z" fill="#A4AFAC"/>
</svg>
