<svg width="18" height="18" viewBox="0 0 18 18" fill="none" xmlns="http://www.w3.org/2000/svg">
<path fill-rule="evenodd" clip-rule="evenodd" d="M0 2.45455C0 1.09636 1.09882 0 2.45455 0H15.5455C16.9012 0 18 1.09636 18 2.45455V15.5455C18 16.9036 16.9012 18 15.5455 18H2.45455C1.09882 18 0 16.9036 0 15.5455V2.45455ZM2.45455 1.63636C2.00291 1.63636 1.63636 2.00455 1.63636 2.45455V15.5455C1.63636 15.9955 2.00291 16.3636 2.45455 16.3636H15.5455C15.9971 16.3636 16.3636 15.9955 16.3636 15.5455V2.45455C16.3636 2.00455 15.9971 1.63636 15.5455 1.63636H2.45455Z" fill="#969FA0"/>
</svg>
