<svg width="18" height="18" viewBox="0 0 18 18" fill="none" xmlns="http://www.w3.org/2000/svg">
<path d="M13.3693 12.1901L17.4099 16.23C17.7358 16.5558 17.7358 17.0841 17.41 17.41C17.0841 17.7358 16.5558 17.7358 16.23 17.4099L12.1901 13.3693C10.8614 14.4345 9.20865 15.0138 7.50569 15.0114C3.36255 15.0114 0 11.6488 0 7.50569C0 3.36255 3.36255 0 7.50569 0C11.6488 0 15.0114 3.36255 15.0114 7.50569C15.0138 9.20865 14.4345 10.8614 13.3693 12.1901ZM11.6964 11.5713C12.7548 10.4829 13.3458 9.02387 13.3435 7.50569C13.3435 4.27991 10.7306 1.66793 7.50569 1.66793C4.27991 1.66793 1.66793 4.27991 1.66793 7.50569C1.66793 10.7306 4.27991 13.3435 7.50569 13.3435C9.02387 13.3458 10.4829 12.7548 11.5713 11.6964L11.6964 11.5713Z" fill="#99A096"/>
</svg>
