<svg width="19" height="20" viewBox="0 0 19 20" fill="none" xmlns="http://www.w3.org/2000/svg">
<path fill-rule="evenodd" clip-rule="evenodd" d="M9.23023 1.66667C9.0219 1.66667 8.81439 1.67417 8.6094 1.68917C8.3619 1.7075 8.09939 1.92333 8.04523 2.2975L7.96606 2.84167C7.83023 3.77833 7.18773 4.47417 6.47356 4.8575C6.36606 4.915 6.26106 4.97667 6.15773 5.04C5.46773 5.46917 4.54356 5.6775 3.66439 5.32667L3.15273 5.1225C2.80106 4.9825 2.48356 5.10083 2.34273 5.30667C2.11023 5.6475 1.90189 6.00667 1.72106 6.3825C1.61273 6.60583 1.66856 6.93917 1.96523 7.17333L2.40106 7.5175C3.14273 8.1025 3.42523 9.005 3.39939 9.81583L3.39689 10L3.39939 10.1842C3.42523 10.995 3.14273 11.8975 2.40106 12.4825L1.96523 12.8267C1.66856 13.0608 1.61273 13.3942 1.72106 13.6175C1.90189 13.9933 2.11023 14.3525 2.34273 14.6933C2.48356 14.8992 2.80106 15.0175 3.15273 14.8775L3.66439 14.6733C4.54356 14.3225 5.46773 14.5317 6.15773 14.96C6.26106 15.0233 6.36606 15.085 6.47356 15.1425C7.18773 15.5258 7.83023 16.2217 7.96606 17.1583L8.04523 17.7025C8.09939 18.0767 8.3619 18.2925 8.6094 18.3108C8.81439 18.3258 9.0219 18.3333 9.23023 18.3333C9.43856 18.3333 9.64606 18.3258 9.85106 18.3108C10.0994 18.2925 10.3611 18.0767 10.4152 17.7025L10.4944 17.1583C10.6302 16.2217 11.2727 15.5258 11.9869 15.1425C12.0944 15.085 12.1994 15.0233 12.3036 14.96C12.9927 14.5317 13.9169 14.3225 14.7961 14.6733L15.3077 14.8775C15.6594 15.0175 15.9769 14.8992 16.1177 14.6933C16.3502 14.3525 16.5586 13.9925 16.7394 13.6175C16.8477 13.3942 16.7919 13.0608 16.4952 12.8267L16.0594 12.4825C15.3177 11.8975 15.0352 10.995 15.0611 10.1842L15.0636 10L15.0611 9.81583C15.0352 9.005 15.3177 8.1025 16.0594 7.5175L16.4952 7.17333C16.7919 6.93917 16.8477 6.60583 16.7394 6.3825C16.5586 6.0075 16.3502 5.6475 16.1177 5.30667C15.9769 5.10083 15.6594 4.9825 15.3077 5.1225L14.7961 5.32667C13.9169 5.6775 12.9927 5.46917 12.3036 5.04C12.1994 4.97667 12.0944 4.915 11.9869 4.8575C11.2727 4.47417 10.6302 3.77833 10.4944 2.84167L10.4152 2.2975C10.3611 1.92333 10.0994 1.7075 9.85106 1.68917C9.64606 1.67417 9.43856 1.66667 9.23023 1.66667ZM8.48769 0.0275C8.73269 0.00916667 8.9802 0 9.2302 0C9.4802 0 9.72769 0.00916667 9.97269 0.0275C11.1269 0.111667 11.9169 1.04167 12.0644 2.05833L12.1435 2.6025C12.1852 2.88917 12.4002 3.1875 12.7752 3.38917C12.9135 3.46333 13.0494 3.54167 13.1819 3.625C13.5435 3.84917 13.9094 3.88583 14.1785 3.77833L14.691 3.57417C15.6435 3.19417 16.8419 3.41333 17.4935 4.36667C17.7727 4.77583 18.0235 5.2075 18.241 5.6575C18.7435 6.69917 18.3327 7.8475 17.5269 8.4825L17.0919 8.82583C16.8644 9.005 16.7135 9.34 16.7269 9.76417C16.7294 9.8425 16.7302 9.92083 16.7302 10C16.7302 10.0792 16.7294 10.1575 16.7269 10.2358C16.7135 10.66 16.8644 10.995 17.0919 11.1742L17.5269 11.5175C18.3327 12.1525 18.7435 13.3008 18.241 14.3425C18.0235 14.7925 17.7727 15.2242 17.4935 15.6333C16.8419 16.5867 15.6435 16.8058 14.691 16.4258L14.1785 16.2217C13.9094 16.1142 13.5435 16.1508 13.1819 16.375C13.0494 16.4583 12.9135 16.5367 12.7752 16.6108C12.4002 16.8125 12.1852 17.1108 12.1435 17.3975L12.0644 17.9417C11.9169 18.9583 11.1269 19.8883 9.97269 19.9725C9.72769 19.9908 9.4802 20 9.2302 20C8.9802 20 8.73269 19.9908 8.48769 19.9725C7.33436 19.8883 6.54353 18.9583 6.39603 17.9417L6.31686 17.3975C6.27519 17.1108 6.06019 16.8125 5.68519 16.6108C5.54686 16.5367 5.41103 16.4583 5.27853 16.375C4.91686 16.1508 4.55103 16.1142 4.28186 16.2217L3.76936 16.4258C2.81686 16.8058 1.61853 16.5867 0.966861 15.6333C0.687695 15.2242 0.436862 14.7925 0.220195 14.3425C-0.283138 13.3008 0.127695 12.1525 0.933528 11.5175L1.36853 11.1742C1.59603 10.995 1.74686 10.66 1.73353 10.2358C1.73103 10.1575 1.73019 10.0792 1.73019 10C1.73019 9.92083 1.73103 9.8425 1.73353 9.76417C1.74686 9.34 1.59603 9.005 1.36853 8.82583L0.933528 8.4825C0.127695 7.8475 -0.283138 6.69917 0.220195 5.6575C0.436862 5.2075 0.687695 4.77583 0.966861 4.36667C1.61853 3.41333 2.81686 3.19417 3.76936 3.57417L4.28186 3.77833C4.55103 3.88583 4.91686 3.84917 5.27853 3.625C5.41103 3.54167 5.54686 3.46333 5.68519 3.38917C6.06019 3.1875 6.27519 2.88917 6.31686 2.6025L6.39603 2.05833C6.54353 1.04167 7.33436 0.111667 8.48769 0.0275ZM9.23014 7.5C7.84931 7.5 6.73014 8.61917 6.73014 10C6.73014 11.3808 7.84931 12.5 9.23014 12.5C10.611 12.5 11.7301 11.3808 11.7301 10C11.7301 8.61917 10.611 7.5 9.23014 7.5ZM5.06348 10C5.06348 7.69917 6.92848 5.83333 9.23014 5.83333C11.531 5.83333 13.3968 7.69917 13.3968 10C13.3968 12.3008 11.531 14.1667 9.23014 14.1667C6.92848 14.1667 5.06348 12.3008 5.06348 10Z" fill="#8D94A0"/>
</svg>
