<svg width="18" height="18" viewBox="0 0 18 18" fill="none" xmlns="http://www.w3.org/2000/svg">
<path fill-rule="evenodd" clip-rule="evenodd" d="M5.72727 0.818182C5.72727 0.366545 5.36073 0 4.90909 0C4.45745 0 4.09091 0.366545 4.09091 0.818182V1.63636H2.45455C1.09882 1.63636 0 2.73518 0 4.09091V15.5455C0 16.9012 1.09882 18 2.45455 18H15.5455C16.9012 18 18 16.9012 18 15.5455V4.09091C18 2.73518 16.9012 1.63636 15.5455 1.63636H13.9091V0.818182C13.9091 0.366545 13.5425 0 13.0909 0C12.6393 0 12.2727 0.366545 12.2727 0.818182V1.63636H9.81818V0.818182C9.81818 0.366545 9.45164 0 9 0C8.54836 0 8.18182 0.366545 8.18182 0.818182V1.63636H5.72727V0.818182ZM2.45455 3.27273H4.09091C4.09091 3.72436 4.45745 4.09091 4.90909 4.09091C5.36073 4.09091 5.72727 3.72436 5.72727 3.27273H8.18182C8.18182 3.72436 8.54836 4.09091 9 4.09091C9.45164 4.09091 9.81818 3.72436 9.81818 3.27273H12.2727C12.2727 3.72436 12.6393 4.09091 13.0909 4.09091C13.5425 4.09091 13.9091 3.72436 13.9091 3.27273H15.5455C15.9971 3.27273 16.3636 3.63927 16.3636 4.09091V15.5455C16.3636 15.9971 15.9971 16.3636 15.5455 16.3636H2.45455C2.00291 16.3636 1.63636 15.9971 1.63636 15.5455V4.09091C1.63636 3.63927 2.00291 3.27273 2.45455 3.27273ZM4.90909 9C4.45745 9 4.09091 9.36655 4.09091 9.81818C4.09091 10.2698 4.45745 10.6364 4.90909 10.6364H9C9.45164 10.6364 9.81818 10.2698 9.81818 9.81818C9.81818 9.36655 9.45164 9 9 9H4.90909ZM4.09091 13.0909C4.09091 12.6393 4.45745 12.2727 4.90909 12.2727H13.0909C13.5425 12.2727 13.9091 12.6393 13.9091 13.0909C13.9091 13.5425 13.5425 13.9091 13.0909 13.9091H4.90909C4.45745 13.9091 4.09091 13.5425 4.09091 13.0909Z" fill="#677777"/>
</svg>
