<svg width="24" height="24" viewBox="0 0 24 24" fill="none" xmlns="http://www.w3.org/2000/svg">
<path fill-rule="evenodd" clip-rule="evenodd" d="M12 2C12.46 2 12.8333 2.37333 12.8333 2.83333V4.5C12.8333 4.96 12.46 5.33333 12 5.33333C11.54 5.33333 11.1667 4.96 11.1667 4.5V2.83333C11.1667 2.37333 11.54 2 12 2ZM5.11322 4.74416C5.43905 4.41833 5.96655 4.41833 6.29155 4.74416L7.46988 5.9225C7.79572 6.24833 7.79572 6.77583 7.46988 7.10166C7.14488 7.42666 6.61738 7.42666 6.29155 7.10166L5.11322 5.9225C4.78822 5.59666 4.78822 5.07 5.11322 4.74416ZM19.071 4.92917C19.3968 5.25417 19.3968 5.7825 19.071 6.1075L17.8927 7.28583C17.5677 7.61167 17.0393 7.61167 16.7143 7.28583C16.3885 6.96083 16.3885 6.4325 16.7143 6.1075L17.8927 4.92917C18.2177 4.60333 18.746 4.60333 19.071 4.92917ZM12 8.66667C10.1592 8.66667 8.66667 10.1592 8.66667 12C8.66667 13.8408 10.1592 15.3333 12 15.3333C13.8408 15.3333 15.3333 13.8408 15.3333 12C15.3333 10.1592 13.8408 8.66667 12 8.66667ZM7 12C7 9.23917 9.23917 7 12 7C14.7608 7 17 9.23917 17 12C17 14.7608 14.7608 17 12 17C9.23917 17 7 14.7608 7 12ZM18.6667 12C18.6667 11.54 19.04 11.1667 19.5 11.1667H21.1667C21.6267 11.1667 22 11.54 22 12C22 12.46 21.6267 12.8333 21.1667 12.8333H19.5C19.04 12.8333 18.6667 12.46 18.6667 12ZM2 12C2 11.54 2.37333 11.1667 2.83333 11.1667H4.5C4.96 11.1667 5.33333 11.54 5.33333 12C5.33333 12.46 4.96 12.8333 4.5 12.8333H2.83333C2.37333 12.8333 2 12.46 2 12ZM16.8982 16.5292C17.224 16.2033 17.7515 16.2033 18.0765 16.5292L19.2557 17.7075C19.5807 18.0333 19.5807 18.5608 19.2557 18.8867C18.9298 19.2117 18.4023 19.2117 18.0765 18.8867L16.8982 17.7075C16.5732 17.3825 16.5732 16.855 16.8982 16.5292ZM7.2855 16.7142C7.6105 17.0392 7.6105 17.5675 7.2855 17.8925L6.10717 19.0708C5.78217 19.3967 5.25384 19.3967 4.92884 19.0708C4.603 18.7458 4.603 18.2175 4.92884 17.8925L6.10717 16.7142C6.43217 16.3883 6.9605 16.3883 7.2855 16.7142ZM12 18.6667C12.46 18.6667 12.8333 19.04 12.8333 19.5V21.1667C12.8333 21.6267 12.46 22 12 22C11.54 22 11.1667 21.6267 11.1667 21.1667V19.5C11.1667 19.04 11.54 18.6667 12 18.6667Z" fill="#A4AFAC"/>
</svg>
